<svg width="32" height="32" viewBox="0 0 32 32" fill="none" xmlns="http://www.w3.org/2000/svg">
<rect x="0.5" y="0.5" width="31" height="31" rx="15.5" stroke="#A2A2A2"/>
<path d="M20.8 20C19.912 20 19.2 20.6675 19.2 21.5C19.2 21.8978 19.3686 22.2794 19.6686 22.5607C19.9687 22.842 20.3757 23 20.8 23C21.2243 23 21.6313 22.842 21.9314 22.5607C22.2314 22.2794 22.4 21.8978 22.4 21.5C22.4 21.1022 22.2314 20.7206 21.9314 20.4393C21.6313 20.158 21.2243 20 20.8 20ZM8 8V9.5H9.6L12.48 15.1925L11.392 17.03C11.272 17.24 11.2 17.4875 11.2 17.75C11.2 18.1478 11.3686 18.5294 11.6686 18.8107C11.9687 19.092 12.3757 19.25 12.8 19.25H22.4V17.75H13.136C13.083 17.75 13.0321 17.7302 12.9946 17.6951C12.9571 17.6599 12.936 17.6122 12.936 17.5625C12.936 17.525 12.944 17.495 12.96 17.4725L13.68 16.25H19.64C20.24 16.25 20.768 15.935 21.04 15.4775L23.904 10.625C23.96 10.505 24 10.3775 24 10.25C24 10.0511 23.9157 9.86032 23.7657 9.71967C23.6157 9.57902 23.4122 9.5 23.2 9.5H11.368L10.616 8M12.8 20C11.912 20 11.2 20.6675 11.2 21.5C11.2 21.8978 11.3686 22.2794 11.6686 22.5607C11.9687 22.842 12.3757 23 12.8 23C13.2243 23 13.6313 22.842 13.9314 22.5607C14.2314 22.2794 14.4 21.8978 14.4 21.5C14.4 21.1022 14.2314 20.7206 13.9314 20.4393C13.6313 20.158 13.2243 20 12.8 20Z" fill="#3972C1"/>
</svg>
