<svg width="20" height="16" viewBox="0 0 20 16" fill="none" xmlns="http://www.w3.org/2000/svg">
<path fill-rule="evenodd" clip-rule="evenodd" d="M5.2681 0.657987C8.41718 0.384512 11.584 0.384512 14.7331 0.657987L16.2431 0.789987C16.945 0.851453 17.6058 1.1472 18.1193 1.62967C18.6328 2.11213 18.9691 2.75328 19.0741 3.44999C19.5277 6.46637 19.5277 9.53361 19.0741 12.55C18.9691 13.2467 18.6328 13.8878 18.1193 14.3703C17.6058 14.8528 16.945 15.1485 16.2431 15.21L14.7331 15.341C11.5831 15.615 8.4171 15.615 5.2681 15.341L3.7581 15.21C3.05603 15.1487 2.39497 14.8531 1.88129 14.3706C1.36761 13.8881 1.03117 13.2469 0.926104 12.55C0.472549 9.53361 0.472549 6.46637 0.926104 3.44999C1.03113 2.75328 1.36742 2.11213 1.8809 1.62967C2.39438 1.1472 3.05521 0.851453 3.7571 0.789987L5.2681 0.657987ZM14.6031 2.15299C11.5402 1.88597 8.45996 1.88597 5.3971 2.15299L3.8871 2.28399C3.52099 2.31637 3.17636 2.4708 2.90852 2.72251C2.64068 2.97421 2.46515 3.30858 2.4101 3.67199C2.15244 5.3826 2.04836 7.11283 2.0991 8.84199L5.9701 4.96999C6.04235 4.89786 6.12857 4.84124 6.22347 4.8036C6.31837 4.76596 6.41995 4.74809 6.522 4.75108C6.62405 4.75408 6.72441 4.77788 6.81694 4.82102C6.90947 4.86416 6.99221 4.92574 7.0601 5.00199L10.7321 9.13199L13.2621 8.28799C13.4008 8.24156 13.5501 8.2367 13.6915 8.27401C13.8329 8.31132 13.9604 8.38918 14.0581 8.49799L17.5771 12.408L17.5911 12.328C18.0226 9.45879 18.0226 6.54119 17.5911 3.67199C17.536 3.30843 17.3603 2.97393 17.0923 2.72222C16.8243 2.4705 16.4794 2.31616 16.1131 2.28399L14.6031 2.15299ZM16.6201 13.588L13.2711 9.86699L10.7371 10.711C10.5978 10.7575 10.448 10.7621 10.3061 10.7242C10.1643 10.6864 10.0367 10.6077 9.9391 10.498L6.4681 6.59299L2.2241 10.836C2.27277 11.3347 2.33444 11.8317 2.4091 12.327C2.46399 12.6907 2.63957 13.0255 2.90763 13.2774C3.17569 13.5293 3.52066 13.6838 3.8871 13.716L5.3971 13.847C8.4601 14.113 11.5401 14.113 14.6031 13.847L16.1131 13.716C16.2911 13.7 16.4631 13.656 16.6201 13.588Z" fill="#8E8E8E"/>
</svg>
