<svg width="49" height="49" viewBox="0 0 49 49" fill="none" xmlns="http://www.w3.org/2000/svg">
<path d="M40.7314 21.56C40.3231 19.7429 38.6897 18.375 36.7502 18.375H31.5643C32.2789 17.1704 32.6668 15.7821 32.6668 14.2917C32.6668 12.1257 31.8064 10.0485 30.2749 8.51696C28.7433 6.98541 26.6661 6.125 24.5002 6.125C22.3342 6.125 20.257 6.98541 18.7255 8.51696C17.1939 10.0485 16.3335 12.1257 16.3335 14.2917C16.3335 15.7821 16.7214 17.1704 17.436 18.375H12.2502C10.3106 18.375 8.67725 19.7429 8.26891 21.56C4.16516 37.9138 4.0835 38.3425 4.0835 38.7917C4.0835 39.8746 4.5137 40.9132 5.27948 41.679C6.04525 42.4448 7.08386 42.875 8.16683 42.875H40.8335C41.9165 42.875 42.9551 42.4448 43.7208 41.679C44.4866 40.9132 44.9168 39.8746 44.9168 38.7917C44.9168 38.3425 44.8352 37.9138 40.7314 21.56ZM24.5002 10.2083C25.5831 10.2083 26.6217 10.6385 27.3875 11.4043C28.1533 12.1701 28.5835 13.2087 28.5835 14.2917C28.5835 15.3746 28.1533 16.4132 27.3875 17.179C26.6217 17.9448 25.5831 18.375 24.5002 18.375C23.4172 18.375 22.3786 17.9448 21.6128 17.179C20.847 16.4132 20.4168 15.3746 20.4168 14.2917C20.4168 13.2087 20.847 12.1701 21.6128 11.4043C22.3786 10.6385 23.4172 10.2083 24.5002 10.2083ZM30.6252 26.5417H22.4585V34.7083H26.5418V28.5833H30.6252V38.7917H22.4585C20.1922 38.7917 18.3752 36.9746 18.3752 34.7083V26.5417C18.3752 24.2754 20.1922 22.4583 22.4585 22.4583H30.6252V26.5417Z" fill="#3972C1"/>
</svg>
