<svg width="112" height="108" viewBox="0 0 112 108" fill="none" xmlns="http://www.w3.org/2000/svg">
<g clip-path="url(#clip0_77_333)">
<path d="M23.3735 14.2728C26.0334 13.0501 28.7812 12.1945 31.6385 11.7058C34.2395 11.2609 36.8624 11.1989 39.49 11.3814C43.782 11.6796 47.8551 12.8082 51.6549 14.8152C59.7181 19.074 65.1364 25.5524 67.8039 34.2972C67.8281 34.3764 67.8472 34.4577 67.8609 34.5393C67.866 34.5699 67.849 34.6043 67.8339 34.6754C64.4535 26.9218 58.9036 21.3834 51.0968 18.2102C45.0915 15.7693 38.8873 15.3975 32.5958 16.9481C20.3773 19.9593 11.5898 30.1483 9.97337 42.0227C9.03258 48.934 10.2979 55.4523 13.8308 61.4771C17.358 67.4922 22.4509 71.7199 28.8738 74.4084C28.4009 74.2734 27.9243 74.1498 27.4555 74.0016C21.3538 72.073 16.2458 68.6491 12.1677 63.7251C8.5451 59.351 6.21263 54.3443 5.33456 48.7345C3.90332 39.5908 5.88035 31.2386 11.5054 23.8314C14.6435 19.699 18.5974 16.5459 23.2859 14.3176C23.3074 14.3074 23.3277 14.2947 23.3735 14.2728Z" fill="#3972C1"/>
<path d="M39.6564 90.5458C38.5042 88.5693 37.3777 86.5773 36.1927 84.6206C35.0077 82.6641 33.802 80.7179 32.5332 78.8153C31.684 77.5419 30.6185 76.4362 29.4323 75.4581C29.3539 75.3934 29.2599 75.3476 29.1731 75.2931C29.1981 75.2445 29.223 75.1959 29.2479 75.1474C29.8585 75.2013 30.4747 75.2204 31.0788 75.3155C33.2356 75.6549 35.2353 76.4402 37.109 77.545C39.0104 78.6661 40.2065 80.3531 40.8353 82.436C41.2894 83.94 41.6489 85.4724 42.0611 86.9893C42.4097 88.2722 42.8704 89.5125 43.6625 90.5947C44.5927 91.8656 45.7509 92.8139 47.3921 93.105C47.0999 93.1762 46.8085 93.2509 46.5153 93.318C44.4417 93.7925 42.3538 94.1455 40.2179 94.1886C34.4885 94.3041 29.8663 91.3172 27.7626 86.2643C27.1746 84.8523 26.9631 83.3518 26.7997 81.8427C26.6329 80.3026 26.5218 78.7535 26.028 77.2667C25.4307 75.4685 24.6862 74.4455 23.1948 73.3272C23.5619 73.4503 23.9357 73.5564 24.2948 73.6994C26.7621 74.6816 28.7108 76.3566 30.4479 78.3151C32.3166 80.4218 33.7998 82.8037 35.345 85.1424C36.6152 87.0647 37.9184 88.9637 39.5677 90.647C39.6248 90.6952 39.6528 90.7152 39.6913 90.7576C39.7286 90.7772 39.7553 90.7744 39.7821 90.7715C39.7693 90.7417 39.7565 90.7118 39.7356 90.663C39.7038 90.6114 39.6801 90.5786 39.6564 90.5458Z" fill="#016939"/>
<path d="M36.7651 61.4055C36.7651 61.583 36.7651 61.7252 36.7651 61.895C35.2375 61.895 33.7285 61.895 32.1919 61.895C32.1919 55.5219 32.1919 49.1406 32.1919 42.7076C32.2955 42.7076 32.4096 42.7076 32.5238 42.7076C35.4373 42.7076 38.3508 42.702 41.2643 42.71C42.6948 42.7139 44.0804 42.9504 45.2804 43.7844C47.3319 45.2101 48.3175 47.182 48.1711 49.691C48.0662 51.4903 47.3741 53.0292 45.9917 54.1959C45.4259 54.6734 44.7451 55.0148 44.0689 55.4487C45.384 57.5391 46.743 59.6991 48.129 61.9023C47.9624 61.9115 47.8598 61.9221 47.7572 61.9221C46.2646 61.9232 44.772 61.9169 43.2795 61.9291C43.0452 61.931 42.9155 61.8529 42.7917 61.6626C41.5813 59.8029 40.3588 57.9512 39.1501 56.0904C39.0188 55.8882 38.8862 55.7961 38.6376 55.8039C38.0305 55.823 37.4223 55.8101 36.7651 55.8101C36.7651 57.6784 36.7651 59.5243 36.7651 61.4055ZM36.765 50.6967C36.765 51.0135 36.765 51.3302 36.765 51.6648C38.0682 51.6648 39.3197 51.6711 40.571 51.6617C41.0824 51.6579 41.5971 51.6503 42.1042 51.5918C43.2051 51.4648 43.9279 50.6907 44.0559 49.5504C44.1802 48.4441 43.5996 47.3966 42.6069 47.066C42.1757 46.9224 41.6985 46.8707 41.2406 46.8622C39.8693 46.8366 38.4973 46.8525 37.1255 46.8538C37.0117 46.8539 36.898 46.866 36.765 46.8737C36.765 48.1473 36.765 49.3863 36.765 50.6967Z" fill="#3871C1"/>
<path d="M93.1857 43.1498C93.1858 42.9976 93.1858 42.8795 93.1858 42.7348C94.7288 42.7348 96.2477 42.7348 97.7872 42.7348C97.7872 49.1186 97.7872 55.4997 97.7872 61.9019C96.2637 61.9019 94.7527 61.9019 93.2018 61.9019C93.2018 59.4111 93.2018 56.9223 93.2018 54.4108C91.2579 54.4108 89.3538 54.4108 87.4091 54.4108C87.4091 56.9055 87.4091 59.3934 87.4091 61.902C85.8572 61.902 84.3456 61.902 82.8062 61.902C82.8062 55.5201 82.8062 49.1396 82.8062 42.7332C84.3234 42.7332 85.8435 42.7332 87.4036 42.7332C87.4036 45.2268 87.4036 47.7151 87.4036 50.2196C89.3465 50.2196 91.2494 50.2196 93.1857 50.2196C93.1857 47.8594 93.1857 45.5217 93.1857 43.1498Z" fill="#3972C1"/>
<path d="M72.8458 53.9127C71.0674 53.6736 69.3685 53.2972 67.8304 52.371C63.9887 50.0576 64.7968 45.2004 67.3681 43.3895C68.5015 42.5912 69.7526 42.1514 71.1044 41.9702C72.7367 41.7514 74.3601 41.7674 75.9678 42.1995C78.8175 42.9653 80.7211 45.2236 80.9761 48.1728C80.9891 48.3229 81.0027 48.473 81.0181 48.6461C79.6515 48.6461 78.3214 48.6461 76.9925 48.6461C76.8634 46.8603 75.5431 46.135 74.1414 45.952C72.9928 45.802 71.8545 45.846 70.7464 46.2189C70.5336 46.2906 70.3232 46.3844 70.1313 46.5004C69.2499 47.033 69.1461 48.056 69.9187 48.7492C70.5914 49.3527 71.4372 49.5689 72.3005 49.7309C73.5642 49.9681 74.847 50.1367 76.0851 50.4705C77.8494 50.9462 79.3731 51.8596 80.3044 53.5015C81.7142 55.9871 81.1884 59.5896 77.7718 61.1174C76.7682 61.5661 75.7125 61.797 74.626 61.8752C73.0029 61.9921 71.3607 62.07 69.8168 61.46C66.8066 60.2705 65.1118 58.074 65.2038 54.9316C65.2052 54.8852 65.2125 54.8389 65.2173 54.7902C66.5559 54.7902 67.886 54.7902 69.2376 54.7902C69.2653 55.0537 69.2729 55.2798 69.3148 55.4993C69.5273 56.6106 70.1759 57.3588 71.265 57.6526C72.7495 58.0531 74.2417 58.0114 75.7043 57.5266C76.284 57.3344 76.7396 56.9761 76.8241 56.3075C76.9137 55.5982 76.5638 55.1206 75.9893 54.7741C75.1313 54.2566 74.1651 54.1015 73.1966 53.9581C73.0905 53.9424 72.9835 53.9321 72.8458 53.9127Z" fill="#3972C1"/>
<path d="M49.9724 49.3717C49.9724 47.1413 49.9724 44.9467 49.9724 42.7298C54.4517 42.7298 58.8996 42.7298 63.3753 42.7298C63.3753 44.0791 63.3753 45.4339 63.3753 46.8359C60.4713 46.8359 57.5556 46.8359 54.6184 46.8359C54.6184 47.9866 54.6184 49.0904 54.6184 50.2333C57.0867 50.2333 59.5507 50.2333 62.0383 50.2333C62.0383 51.6269 62.0383 52.982 62.0383 54.3718C59.5794 54.3718 57.1144 54.3718 54.6231 54.3718C54.6231 55.5193 54.6231 56.6322 54.6231 57.7848C57.5417 57.7848 60.4485 57.7848 63.379 57.7848C63.379 59.1769 63.379 60.5295 63.379 61.9027C58.9168 61.9027 54.4686 61.9027 49.9724 61.9027C49.9724 57.7334 49.9724 53.5705 49.9724 49.3717Z" fill="#3972C1"/>
<path d="M23.1231 49.7974C23.1231 49.951 23.1231 50.0694 23.1231 50.224C24.9167 50.224 26.6894 50.224 28.4908 50.224C28.4908 51.6236 28.4908 52.987 28.4908 54.3838C26.7156 54.3838 24.9426 54.3838 23.1284 54.3838C23.1284 56.9041 23.1284 59.3917 23.1284 61.901C21.5759 61.901 20.0646 61.901 18.5249 61.901C18.5249 55.5226 18.5249 49.1423 18.5249 42.7347C22.4598 42.7347 26.4027 42.7347 30.3641 42.7347C30.3641 44.0945 30.3641 45.45 30.3641 46.8424C27.9643 46.8424 25.5708 46.8424 23.1231 46.8424C23.1231 47.8395 23.1231 48.8008 23.1231 49.7974Z" fill="#3972C1"/>
<path d="M52.0665 70.3954C50.212 69.7674 48.5982 70.3413 47.1605 71.4836C46.0598 72.3582 45.0626 73.3617 43.9954 74.2801C42.9709 75.1616 41.8407 75.855 40.4687 76.0673C39.4874 76.2192 38.5167 76.138 37.5509 75.9583C36.2685 75.7198 35.0171 75.3809 33.8721 74.7288C33.6907 74.6255 33.5156 74.5112 33.3094 74.3848C34.08 74.2165 34.8224 74.1362 35.5042 73.8887C36.9132 73.3771 38.3189 72.8379 39.6733 72.1985C41.8403 71.1755 43.9645 70.0618 46.1065 68.9858C46.1999 68.9389 46.2899 68.8854 46.3562 68.7555C45.8402 68.9017 45.3065 69.0039 44.8112 69.2019C42.8642 69.9803 40.9224 70.7727 38.9917 71.5907C37.0201 72.426 35.0203 73.1409 32.8806 73.4202C31.5299 73.5965 29.5392 73.46 28.5723 73.0378C30.5971 73.13 32.0005 72.0633 33.2256 70.6818C33.9935 69.8159 34.6849 68.8814 35.4647 68.0272C37.0231 66.3201 38.9901 65.3652 41.2702 65.0694C44.1694 64.6933 46.694 65.6469 48.9243 67.4131C50.0428 68.2988 51.0385 69.3394 52.0884 70.3424C52.0871 70.3749 52.0665 70.3954 52.0665 70.3954Z" fill="#87BD43"/>
<path d="M52.3948 22.4415C51.8092 23.3133 51.2826 24.2123 50.9152 25.2055C49.7255 28.4215 50.5685 31.9144 53.1022 34.0697C54.3182 35.1041 55.7466 35.6489 57.3318 35.825C59.3161 36.0454 61.3054 36.2172 63.299 36.0966C64.7481 36.0089 66.1894 35.7922 67.6342 35.6335C67.6977 35.6265 67.7618 35.6247 67.8467 35.6871C67.3024 35.9165 66.7663 36.168 66.2124 36.3715C63.2188 37.4711 60.1316 38.0715 56.9354 38.0485C52.9447 38.0197 49.2222 36.9995 45.8165 34.9163C43.395 33.4351 41.0202 31.8777 38.6141 30.3711C36.6021 29.1112 34.5686 27.8862 32.3714 26.9657C31.0908 26.4292 29.7767 26.0177 28.3785 25.9134C26.8246 25.7975 25.4223 26.1666 24.1724 27.153C24.1482 27.1578 24.1472 27.1565 24.1472 27.1565C24.2645 26.9586 24.3567 26.7395 24.5031 26.5663C25.4547 25.44 26.7046 24.8872 28.1445 24.7256C30.3786 24.4748 32.4734 25.0487 34.4449 25.9946C36.6567 27.0557 38.8024 28.2564 40.9611 29.4256C43.8127 30.9701 46.6489 32.543 49.492 34.1031C49.5434 34.1313 49.5991 34.1513 49.7095 34.2003C49.6533 34.0808 49.6219 34.0036 49.5823 33.931C47.7776 30.6241 48.1385 26.9925 50.5907 24.1377C51.1168 23.5251 51.7342 22.9908 52.342 22.4212C52.3745 22.4219 52.3948 22.4415 52.3948 22.4415Z" fill="#3A72C2"/>
<path d="M57.4202 67.2648C57.9028 67.5771 58.3705 67.8653 58.8216 68.1774C59.0181 68.3134 59.1589 68.3091 59.3617 68.1774C61.213 66.9754 63.0723 65.7859 64.9296 64.5932C65.0473 64.5176 65.1676 64.4461 65.3219 64.351C65.3219 68.2593 65.3219 72.1193 65.3219 76.0038C64.4049 76.0038 63.493 76.0038 62.552 76.0038C62.552 73.8559 62.552 71.7119 62.552 69.488C62.3925 69.5801 62.2858 69.6366 62.1841 69.7012C61.2274 70.3089 60.2666 70.9107 59.3191 71.5325C59.113 71.6678 58.9774 71.6545 58.7809 71.5225C57.8795 70.9174 56.9669 70.3289 56.0573 69.7359C55.9512 69.6666 55.839 69.6067 55.6822 69.5146C55.6822 71.7117 55.6822 73.8533 55.6822 76.0114C54.7459 76.0114 53.8421 76.0114 52.9106 76.0114C52.9106 72.1437 52.9106 68.2726 52.9106 64.351C54.4213 65.3269 55.9099 66.2887 57.4202 67.2648Z" fill="#3972C1"/>
<path d="M66.6414 67.071C66.6414 66.1534 66.6414 65.2715 66.6414 64.3648C69.3655 64.3648 72.0674 64.3648 74.7897 64.3648C74.7897 65.1854 74.7897 66.0019 74.7897 66.8494C73.0157 66.8494 71.2539 66.8494 69.4687 66.8494C69.4687 67.5424 69.4687 68.2052 69.4687 68.9076C70.9612 68.9076 72.4589 68.9076 73.9833 68.9076C73.9833 69.7624 73.9833 70.5785 73.9833 71.432C72.485 71.432 70.9874 71.432 69.4676 71.432C69.4676 72.1314 69.4676 72.7942 69.4676 73.5026C71.2351 73.5026 73.005 73.5026 74.7922 73.5026C74.7922 74.3556 74.7922 75.1636 74.7922 76C72.0958 76 69.3934 76 66.6414 76C66.6414 73.0417 66.6414 70.0743 66.6414 67.071Z" fill="#3871C1"/>
<path d="M79.0896 69.8439C80.0729 68.0174 81.0432 66.2142 82.0559 64.3324C84.1593 68.249 86.2286 72.102 88.3183 75.9932C88.2047 76.0083 88.1303 76.0268 88.0558 76.0269C87.1606 76.0289 86.2654 76.0213 85.3705 76.0334C85.161 76.0362 85.0522 75.9676 84.9637 75.7808C84.775 75.3826 84.5739 74.9887 84.3491 74.6101C84.2868 74.505 84.1244 74.3979 84.0067 74.3966C82.706 74.3815 81.405 74.3922 80.1042 74.3817C79.9042 74.3801 79.807 74.4507 79.7244 74.6212C79.5272 75.0287 79.3206 75.4324 79.0969 75.8258C79.0447 75.9175 78.9103 76.0181 78.8123 76.0195C77.8224 76.0337 76.8322 76.0282 75.7605 76.0282C76.8821 73.9445 77.9795 71.9058 79.0896 69.8439ZM82.0779 70.2269C81.7108 70.8652 81.3436 71.5035 80.9502 72.1876C81.7134 72.1876 82.3853 72.1876 83.115 72.1876C82.7688 71.5219 82.4417 70.8928 82.0779 70.2269Z" fill="#3972C1"/>
<path d="M103.746 61.4726C103.746 61.6253 103.746 61.7434 103.746 61.8921C102.205 61.8921 100.686 61.8921 99.1426 61.8921C99.1426 57.5593 99.1426 53.2219 99.1426 48.8587C100.67 48.8587 102.19 48.8587 103.746 48.8587C103.746 53.066 103.746 57.252 103.746 61.4726Z" fill="#3A72C2"/>
<path d="M92.318 71.872C92.318 70.2866 92.318 68.737 92.318 67.1558C91.307 67.1558 90.3213 67.1558 89.3103 67.1558C89.3103 66.2131 89.3103 65.3016 89.3103 64.3646C92.2466 64.3646 95.1865 64.3646 98.1496 64.3646C98.1496 65.2756 98.1496 66.1874 98.1496 67.1334C97.1631 67.1334 96.1787 67.1334 95.1532 67.1334C95.1532 70.1061 95.1532 73.0453 95.1532 76.0063C94.1986 76.0063 93.2851 76.0063 92.318 76.0063C92.318 74.6423 92.318 73.2751 92.318 71.872Z" fill="#3A72C2"/>
<path d="M101.395 43.0361C101.908 43.0364 102.386 43.0279 102.864 43.0391C103.534 43.0549 103.936 43.4406 103.949 44.1124C103.966 45.0317 103.965 45.9516 103.949 46.8709C103.938 47.5356 103.519 47.9364 102.86 47.9405C101.953 47.9462 101.045 47.9459 100.137 47.9407C99.4662 47.9369 99.0367 47.5154 99.031 46.8484C99.0234 45.9408 99.0244 45.0332 99.0307 44.1256C99.0352 43.4851 99.433 43.0676 100.069 43.0422C100.499 43.0251 100.929 43.0371 101.395 43.0361ZM103.047 47.442C103.362 47.2623 103.54 46.9977 103.54 46.6293C103.542 45.8774 103.549 45.1254 103.538 44.3737C103.531 43.8154 103.209 43.4608 102.66 43.4446C101.885 43.4217 101.108 43.4234 100.333 43.444C99.8202 43.4576 99.4715 43.7893 99.4625 44.261C99.4467 45.0841 99.4494 45.9079 99.4636 46.7311C99.47 47.1076 99.7587 47.484 100.102 47.4906C101.065 47.5091 102.03 47.4788 103.047 47.442Z" fill="#FF3F49"/>
<path d="M56.9963 24.7553C56.135 23.9943 55.1755 24.4585 54.9018 25.1705C54.6399 25.8523 54.9721 26.57 55.6669 26.8191C56.3269 27.0558 57.0434 26.6995 57.2681 26.021C57.301 25.9217 57.3238 25.819 57.3545 25.706C57.4985 26.5633 56.8718 27.4428 55.9348 27.7148C55.0461 27.9728 54 27.4725 53.6241 26.6097C53.2255 25.6949 53.5935 24.5752 54.4507 24.0944C55.32 23.6068 56.4214 23.8527 57.0261 24.7035C57.0194 24.7363 56.9963 24.7553 56.9963 24.7553Z" fill="#3C74C2"/>
<path d="M57.2947 25.4684C57.2971 25.4199 57.3133 25.384 57.3336 25.3507C57.3351 25.3482 57.3663 25.3638 57.3837 25.371C57.3589 25.4079 57.3342 25.4448 57.2947 25.4684Z" fill="#FEFFFF"/>
<path d="M67.9992 35.5849C67.9817 35.5849 67.9726 35.582 67.9636 35.5791C67.9783 35.5801 67.9931 35.5811 67.9992 35.5849Z" fill="#3A72C2"/>
<path d="M57.0312 24.7273C57.0579 24.7533 57.0726 24.7882 57.0874 24.8232C57.0635 24.8115 57.0397 24.7999 57.006 24.7718C56.9962 24.7553 57.0193 24.7363 57.0312 24.7273Z" fill="#3C74C2"/>
<path d="M24.1484 27.158C24.1317 27.1702 24.1148 27.1821 24.0979 27.1941C24.1024 27.1768 24.1069 27.1594 24.1294 27.1493C24.1473 27.1565 24.1483 27.1578 24.1484 27.158Z" fill="#3A72C2"/>
<path d="M52.0975 70.3647C52.1221 70.3747 52.1364 70.3949 52.1506 70.415C52.132 70.4176 52.1133 70.4202 52.0807 70.4091C52.0666 70.3954 52.0872 70.3749 52.0975 70.3647Z" fill="#87BD43"/>
<path d="M52.3643 22.412C52.3783 22.3904 52.4025 22.3785 52.4267 22.3667C52.4278 22.3854 52.429 22.4041 52.4124 22.4321C52.3947 22.4415 52.3744 22.4219 52.3643 22.412Z" fill="#3A72C2"/>
<path d="M39.6808 90.7352C39.6528 90.7152 39.6248 90.6952 39.5891 90.6592C39.593 90.6263 39.6046 90.6094 39.6363 90.5691C39.6801 90.5786 39.7038 90.6114 39.7195 90.6759C39.7013 90.7168 39.691 90.726 39.6808 90.7352Z" fill="white"/>
<path d="M39.7275 90.6948C39.7564 90.7118 39.7692 90.7417 39.782 90.7715C39.7552 90.7744 39.7284 90.7772 39.6912 90.7576C39.6909 90.726 39.7011 90.7168 39.7275 90.6948Z" fill="white"/>
<path d="M36.7651 50.661C36.7651 49.3863 36.7651 48.1473 36.7651 46.8737C36.8981 46.866 37.0119 46.8539 37.1257 46.8538C38.4974 46.8525 39.8695 46.8366 41.2407 46.8622C41.6986 46.8707 42.1759 46.9224 42.6071 47.066C43.5997 47.3966 44.1804 48.4441 44.0561 49.5504C43.928 50.6907 43.2052 51.4648 42.1044 51.5918C41.5973 51.6503 41.0826 51.6579 40.5711 51.6617C39.3198 51.6711 38.0683 51.6648 36.7651 51.6648C36.7651 51.3302 36.7651 51.0135 36.7651 50.661Z" fill="#FEFFFF"/>
<path d="M82.0961 70.2453C82.4415 70.8928 82.7686 71.5219 83.1147 72.1876C82.3851 72.1876 81.7132 72.1876 80.95 72.1876C81.3434 71.5035 81.7106 70.8652 82.0961 70.2453Z" fill="#F6F8FC"/>
<path d="M103.021 47.4549C102.03 47.4788 101.065 47.5091 100.102 47.4906C99.7586 47.484 99.4699 47.1076 99.4635 46.7311C99.4493 45.9079 99.4466 45.0841 99.4623 44.261C99.4714 43.7893 99.8201 43.4576 100.333 43.444C101.108 43.4234 101.885 43.4217 102.66 43.4446C103.209 43.4609 103.53 43.8154 103.538 44.3737C103.549 45.1254 103.542 45.8774 103.54 46.6293C103.539 46.9977 103.362 47.2623 103.021 47.4549ZM101.622 44.2794C100.965 44.1762 100.37 44.7374 100.294 45.3071C100.218 45.8857 100.566 46.4681 101.128 46.6472C101.78 46.8554 102.492 46.4635 102.67 45.7989C102.853 45.1106 102.439 44.4739 101.622 44.2794Z" fill="#FFFCFC"/>
<path d="M101.653 44.2811C102.439 44.474 102.853 45.1106 102.67 45.7989C102.493 46.4635 101.78 46.8554 101.128 46.6472C100.566 46.4681 100.218 45.8857 100.294 45.3071C100.37 44.7374 100.965 44.1762 101.653 44.2811Z" fill="#FF3B46"/>
</g>
<defs>
<clipPath id="clip0_77_333">
<rect width="112" height="112" fill="white"/>
</clipPath>
</defs>
</svg>
